<?xml version="1.0" standalone="no"?>
<!DOCTYPE svg PUBLIC "-//W3C//DTD SVG 20010904//EN"
 "http://www.w3.org/TR/2001/REC-SVG-20010904/DTD/svg10.dtd">
<svg version="1.0" xmlns="http://www.w3.org/2000/svg"
 width="100.000000pt" height="100.000000pt" viewBox="0 0 100.000000 100.000000"
 preserveAspectRatio="xMidYMid meet">
<metadata>
Created by potrace 1.11, written by Peter Selinger 2001-2013
</metadata>
<g transform="translate(0.000000,100.000000) scale(0.100000,-0.100000)"
fill="#000000" stroke="none">
<path d="M296 881 c-23 -24 -34 -28 -72 -26 -25 1 -47 -2 -50 -7 -3 -5 -7 -29
-8 -53 -2 -34 -9 -53 -31 -75 -25 -26 -26 -31 -14 -47 8 -10 21 -23 29 -30 9
-7 15 -30 16 -60 2 -64 2 -63 18 -63 10 0 12 -12 8 -50 -4 -43 -1 -55 22 -84
34 -45 73 -57 174 -53 88 2 99 -5 67 -47 -22 -29 -19 -36 15 -36 17 0 30 -1
30 -2 0 -2 -9 -32 -20 -68 -11 -36 -20 -67 -20 -69 0 -2 31 36 70 85 l69 89
-35 5 c-32 5 -34 6 -21 24 12 17 29 19 138 20 135 1 161 9 195 61 38 58 2 163
-61 179 -20 5 -25 12 -25 40 0 66 -74 136 -145 136 -17 0 -47 -8 -68 -19 -35
-18 -38 -18 -56 -2 -14 12 -21 33 -23 71 l-3 53 -51 1 c-42 1 -55 6 -76 29
-32 34 -38 34 -72 -2z"/>
<path d="M330 284 c-8 -3 -32 -13 -53 -21 -59 -25 -63 -81 -7 -110 42 -21 80
18 95 100 7 38 2 43 -35 31z"/>
<path d="M748 276 c-59 -16 -78 -32 -78 -65 0 -34 10 -48 41 -60 38 -14 65 9
84 71 23 78 26 74 -47 54z"/>
</g>
</svg>
