<?xml version="1.0" standalone="no"?>
<!DOCTYPE svg PUBLIC "-//W3C//DTD SVG 20010904//EN"
 "http://www.w3.org/TR/2001/REC-SVG-20010904/DTD/svg10.dtd">
<svg version="1.0" xmlns="http://www.w3.org/2000/svg"
 width="214.000000pt" height="214.000000pt" viewBox="0 0 214.000000 214.000000"
 preserveAspectRatio="xMidYMid meet">
<metadata>
Created by potrace 1.11, written by Peter Selinger 2001-2013
</metadata>
<g transform="translate(0.000000,214.000000) scale(0.100000,-0.100000)"
fill="#000000" stroke="none">
<path d="M867 1623 c-20 -20 -38 -28 -69 -29 -24 -1 -48 -2 -54 -3 -7 -1 -10
-20 -9 -50 2 -43 -2 -54 -26 -77 -16 -15 -29 -31 -29 -35 0 -3 12 -18 27 -33
21 -21 28 -38 29 -74 3 -64 2 -62 18 -62 10 0 12 -12 9 -47 -4 -55 9 -87 50
-117 24 -17 44 -21 120 -23 51 -1 98 -2 105 -2 10 -1 8 -10 -7 -35 -27 -43
-27 -46 9 -46 17 0 30 -1 30 -2 0 -2 -9 -32 -20 -68 -11 -36 -20 -67 -20 -69
0 -2 14 14 30 35 17 22 36 46 43 54 7 8 25 32 41 53 l28 37 -37 0 c-36 0 -37
1 -23 22 14 21 21 22 134 21 103 -2 123 1 156 19 86 49 81 175 -10 218 -25 12
-32 21 -32 46 0 65 -75 134 -145 134 -17 0 -47 -9 -67 -20 l-37 -20 -21 22
c-14 15 -20 35 -20 69 0 52 -6 58 -62 54 -29 -2 -44 3 -68 26 -16 16 -33 29
-38 29 -4 0 -20 -12 -35 -27z"/>
<path d="M900 1024 c-85 -28 -118 -64 -93 -102 43 -69 109 -33 128 71 7 38 2
43 -35 31z"/>
<path d="M1312 1015 c-56 -17 -72 -32 -72 -64 0 -43 21 -63 60 -59 29 2 38 10
52 38 10 20 21 50 24 68 7 37 2 38 -64 17z"/>
</g>
</svg>
